<svg width="59" height="53" viewBox="0 0 59 53" fill="none" xmlns="http://www.w3.org/2000/svg">
<mask id="path-1-outside-1_1181_4796" maskUnits="userSpaceOnUse" x="0" y="0.5" width="59" height="53" fill="black">
<rect fill="white" y="0.5" width="59" height="53"/>
<path d="M28.9584 40.7039H32.1705V43.6694H33.4296V36.6887H32.1705V39.6439H28.9584V36.6887H27.7027V43.6694H28.9584V40.7039Z"/>
<path fill-rule="evenodd" clip-rule="evenodd" d="M57.725 31.6914C57.9649 32.0677 57.6624 32.5164 57.2183 32.5164H55.2713C54.9204 32.5164 54.6359 32.8029 54.6359 33.1563V34.643C54.6359 34.9964 54.9204 35.2829 55.2713 35.2829H57.4071C57.8291 35.2829 58.133 35.6923 57.9413 36.0709C57.2174 37.5008 55.7414 38.48 54.0383 38.48C52.6303 38.48 51.3776 37.8107 50.5767 36.7708C50.2609 37.0044 49.8711 37.1424 49.4492 37.1424H45.5937C44.8878 37.1424 44.2478 37.5406 43.8724 38.1426C43.7265 38.3768 43.5745 38.6068 43.4169 38.8324C42.8766 39.6055 42.8556 40.6575 43.4591 41.3817L45.7051 44.0773C46.3818 44.8895 46.2766 46.1003 45.4702 46.7818L44.0099 48.0158C43.2034 48.6973 42.001 48.5914 41.3243 47.7792L38.9195 44.893C38.3418 44.1997 37.3658 44.0191 36.5338 44.3615C36.0478 44.5614 35.5496 44.7375 35.0406 44.8882C34.1595 45.149 33.5003 45.9301 33.5003 46.8549V50.5803C33.5003 51.6405 32.6468 52.5 31.594 52.5H29.6878C28.635 52.5 27.7815 51.6405 27.7815 50.5803V46.8644C27.7815 45.938 27.1202 45.1561 26.2371 44.8965C25.9522 44.8128 25.6706 44.7211 25.3927 44.6217C24.5803 44.3312 23.6557 44.527 23.1016 45.192L20.6793 48.0991C20.0026 48.9113 18.8002 49.0172 17.9937 48.3357L16.5335 47.1018C15.727 46.4203 15.6218 45.2094 16.2985 44.3972L18.269 42.0323C18.8958 41.28 18.847 40.1799 18.2506 39.4029C17.9397 38.998 17.6481 38.5775 17.377 38.1426C17.0016 37.5406 16.3616 37.1424 15.6557 37.1424H11.5784C10.944 37.1424 10.382 36.8303 10.0355 36.3503C9.91197 36.6082 9.70365 36.8223 9.43701 36.9501L7.47667 37.8902C7.17283 38.0359 6.824 38.0543 6.50671 37.9413L1.87683 36.2929C1.37651 36.1148 1.03877 35.6424 1.02978 35.108L1.00018 33.3495C0.990867 32.7959 1.33622 32.2989 1.85598 32.1182L6.3293 30.5624C6.6448 30.4526 6.99051 30.4723 7.29172 30.6171L9.43824 31.6493C9.68944 31.7701 9.88876 31.9674 10.014 32.2057C10.3585 31.7086 10.9307 31.3833 11.5784 31.3833H49.4492C49.7912 31.3833 50.1122 31.474 50.3897 31.6329C51.1741 30.4448 52.5154 29.6617 54.0383 29.6617C55.5862 29.6617 56.9464 30.4706 57.725 31.6914ZM27.385 43.9893V36.3687H29.2761V39.3239H31.8528V36.3687H33.7473V43.9893H31.8528V41.0239H29.2761V43.9893H27.385Z"/>
<path fill-rule="evenodd" clip-rule="evenodd" d="M28.9049 1.75959C28.9049 1.6761 28.9126 1.59442 28.9273 1.51522C21.6469 2.20875 15.9431 8.3553 15.8866 15.8554H14.7128C13.2625 15.8554 12.0867 17.0395 12.0867 18.5002C12.0867 19.9608 13.2625 21.1449 14.7128 21.1449H46.5054C47.9558 21.1449 49.1315 19.9608 49.1315 18.5002C49.1315 17.0395 47.9558 15.8554 46.5054 15.8554H44.717C44.66 8.29683 38.8674 2.113 31.5058 1.5C31.5223 1.58394 31.531 1.67074 31.531 1.75959V6.26127C31.531 6.99159 30.9432 7.58363 30.218 7.58363C29.4928 7.58363 28.9049 6.99159 28.9049 6.26126V1.75959ZM33.9616 2.91313C33.545 2.91313 33.2073 3.25324 33.2073 3.67279V6.14871C33.2073 6.56826 33.545 6.90837 33.9616 6.90837C34.3782 6.90837 34.7159 6.56826 34.7159 6.14871V3.67279C34.7159 3.25324 34.3782 2.91313 33.9616 2.91313ZM25.7201 3.72906C25.7201 3.30951 26.0578 2.9694 26.4744 2.9694C26.891 2.9694 27.2287 3.30951 27.2287 3.72906V6.20498C27.2287 6.62453 26.891 6.96464 26.4744 6.96464C26.0578 6.96464 25.7201 6.62453 25.7201 6.20498V3.72906Z"/>
<path d="M30.5812 34.7929C23.2368 34.7929 17.283 28.7971 17.283 21.401H43.8793C43.8793 28.7971 37.9255 34.7929 30.5812 34.7929Z"/>
</mask>
<path d="M28.9584 40.7039H32.1705V43.6694H33.4296V36.6887H32.1705V39.6439H28.9584V36.6887H27.7027V43.6694H28.9584V40.7039Z" fill="#403130"/>
<path fill-rule="evenodd" clip-rule="evenodd" d="M57.725 31.6914C57.9649 32.0677 57.6624 32.5164 57.2183 32.5164H55.2713C54.9204 32.5164 54.6359 32.8029 54.6359 33.1563V34.643C54.6359 34.9964 54.9204 35.2829 55.2713 35.2829H57.4071C57.8291 35.2829 58.133 35.6923 57.9413 36.0709C57.2174 37.5008 55.7414 38.48 54.0383 38.48C52.6303 38.48 51.3776 37.8107 50.5767 36.7708C50.2609 37.0044 49.8711 37.1424 49.4492 37.1424H45.5937C44.8878 37.1424 44.2478 37.5406 43.8724 38.1426C43.7265 38.3768 43.5745 38.6068 43.4169 38.8324C42.8766 39.6055 42.8556 40.6575 43.4591 41.3817L45.7051 44.0773C46.3818 44.8895 46.2766 46.1003 45.4702 46.7818L44.0099 48.0158C43.2034 48.6973 42.001 48.5914 41.3243 47.7792L38.9195 44.893C38.3418 44.1997 37.3658 44.0191 36.5338 44.3615C36.0478 44.5614 35.5496 44.7375 35.0406 44.8882C34.1595 45.149 33.5003 45.9301 33.5003 46.8549V50.5803C33.5003 51.6405 32.6468 52.5 31.594 52.5H29.6878C28.635 52.5 27.7815 51.6405 27.7815 50.5803V46.8644C27.7815 45.938 27.1202 45.1561 26.2371 44.8965C25.9522 44.8128 25.6706 44.7211 25.3927 44.6217C24.5803 44.3312 23.6557 44.527 23.1016 45.192L20.6793 48.0991C20.0026 48.9113 18.8002 49.0172 17.9937 48.3357L16.5335 47.1018C15.727 46.4203 15.6218 45.2094 16.2985 44.3972L18.269 42.0323C18.8958 41.28 18.847 40.1799 18.2506 39.4029C17.9397 38.998 17.6481 38.5775 17.377 38.1426C17.0016 37.5406 16.3616 37.1424 15.6557 37.1424H11.5784C10.944 37.1424 10.382 36.8303 10.0355 36.3503C9.91197 36.6082 9.70365 36.8223 9.43701 36.9501L7.47667 37.8902C7.17283 38.0359 6.824 38.0543 6.50671 37.9413L1.87683 36.2929C1.37651 36.1148 1.03877 35.6424 1.02978 35.108L1.00018 33.3495C0.990867 32.7959 1.33622 32.2989 1.85598 32.1182L6.3293 30.5624C6.6448 30.4526 6.99051 30.4723 7.29172 30.6171L9.43824 31.6493C9.68944 31.7701 9.88876 31.9674 10.014 32.2057C10.3585 31.7086 10.9307 31.3833 11.5784 31.3833H49.4492C49.7912 31.3833 50.1122 31.474 50.3897 31.6329C51.1741 30.4448 52.5154 29.6617 54.0383 29.6617C55.5862 29.6617 56.9464 30.4706 57.725 31.6914ZM27.385 43.9893V36.3687H29.2761V39.3239H31.8528V36.3687H33.7473V43.9893H31.8528V41.0239H29.2761V43.9893H27.385Z" fill="#403130"/>
<path fill-rule="evenodd" clip-rule="evenodd" d="M28.9049 1.75959C28.9049 1.6761 28.9126 1.59442 28.9273 1.51522C21.6469 2.20875 15.9431 8.3553 15.8866 15.8554H14.7128C13.2625 15.8554 12.0867 17.0395 12.0867 18.5002C12.0867 19.9608 13.2625 21.1449 14.7128 21.1449H46.5054C47.9558 21.1449 49.1315 19.9608 49.1315 18.5002C49.1315 17.0395 47.9558 15.8554 46.5054 15.8554H44.717C44.66 8.29683 38.8674 2.113 31.5058 1.5C31.5223 1.58394 31.531 1.67074 31.531 1.75959V6.26127C31.531 6.99159 30.9432 7.58363 30.218 7.58363C29.4928 7.58363 28.9049 6.99159 28.9049 6.26126V1.75959ZM33.9616 2.91313C33.545 2.91313 33.2073 3.25324 33.2073 3.67279V6.14871C33.2073 6.56826 33.545 6.90837 33.9616 6.90837C34.3782 6.90837 34.7159 6.56826 34.7159 6.14871V3.67279C34.7159 3.25324 34.3782 2.91313 33.9616 2.91313ZM25.7201 3.72906C25.7201 3.30951 26.0578 2.9694 26.4744 2.9694C26.891 2.9694 27.2287 3.30951 27.2287 3.72906V6.20498C27.2287 6.62453 26.891 6.96464 26.4744 6.96464C26.0578 6.96464 25.7201 6.62453 25.7201 6.20498V3.72906Z" fill="#403130"/>
<path d="M30.5812 34.7929C23.2368 34.7929 17.283 28.7971 17.283 21.401H43.8793C43.8793 28.7971 37.9255 34.7929 30.5812 34.7929Z" fill="#403130"/>
<path d="M28.9584 40.7039H32.1705V43.6694H33.4296V36.6887H32.1705V39.6439H28.9584V36.6887H27.7027V43.6694H28.9584V40.7039Z" stroke="#ADF802" mask="url(#path-1-outside-1_1181_4796)"/>
<path fill-rule="evenodd" clip-rule="evenodd" d="M57.725 31.6914C57.9649 32.0677 57.6624 32.5164 57.2183 32.5164H55.2713C54.9204 32.5164 54.6359 32.8029 54.6359 33.1563V34.643C54.6359 34.9964 54.9204 35.2829 55.2713 35.2829H57.4071C57.8291 35.2829 58.133 35.6923 57.9413 36.0709C57.2174 37.5008 55.7414 38.48 54.0383 38.48C52.6303 38.48 51.3776 37.8107 50.5767 36.7708C50.2609 37.0044 49.8711 37.1424 49.4492 37.1424H45.5937C44.8878 37.1424 44.2478 37.5406 43.8724 38.1426C43.7265 38.3768 43.5745 38.6068 43.4169 38.8324C42.8766 39.6055 42.8556 40.6575 43.4591 41.3817L45.7051 44.0773C46.3818 44.8895 46.2766 46.1003 45.4702 46.7818L44.0099 48.0158C43.2034 48.6973 42.001 48.5914 41.3243 47.7792L38.9195 44.893C38.3418 44.1997 37.3658 44.0191 36.5338 44.3615C36.0478 44.5614 35.5496 44.7375 35.0406 44.8882C34.1595 45.149 33.5003 45.9301 33.5003 46.8549V50.5803C33.5003 51.6405 32.6468 52.5 31.594 52.5H29.6878C28.635 52.5 27.7815 51.6405 27.7815 50.5803V46.8644C27.7815 45.938 27.1202 45.1561 26.2371 44.8965C25.9522 44.8128 25.6706 44.7211 25.3927 44.6217C24.5803 44.3312 23.6557 44.527 23.1016 45.192L20.6793 48.0991C20.0026 48.9113 18.8002 49.0172 17.9937 48.3357L16.5335 47.1018C15.727 46.4203 15.6218 45.2094 16.2985 44.3972L18.269 42.0323C18.8958 41.28 18.847 40.1799 18.2506 39.4029C17.9397 38.998 17.6481 38.5775 17.377 38.1426C17.0016 37.5406 16.3616 37.1424 15.6557 37.1424H11.5784C10.944 37.1424 10.382 36.8303 10.0355 36.3503C9.91197 36.6082 9.70365 36.8223 9.43701 36.9501L7.47667 37.8902C7.17283 38.0359 6.824 38.0543 6.50671 37.9413L1.87683 36.2929C1.37651 36.1148 1.03877 35.6424 1.02978 35.108L1.00018 33.3495C0.990867 32.7959 1.33622 32.2989 1.85598 32.1182L6.3293 30.5624C6.6448 30.4526 6.99051 30.4723 7.29172 30.6171L9.43824 31.6493C9.68944 31.7701 9.88876 31.9674 10.014 32.2057C10.3585 31.7086 10.9307 31.3833 11.5784 31.3833H49.4492C49.7912 31.3833 50.1122 31.474 50.3897 31.6329C51.1741 30.4448 52.5154 29.6617 54.0383 29.6617C55.5862 29.6617 56.9464 30.4706 57.725 31.6914ZM27.385 43.9893V36.3687H29.2761V39.3239H31.8528V36.3687H33.7473V43.9893H31.8528V41.0239H29.2761V43.9893H27.385Z" stroke="#ADF802" mask="url(#path-1-outside-1_1181_4796)"/>
<path fill-rule="evenodd" clip-rule="evenodd" d="M28.9049 1.75959C28.9049 1.6761 28.9126 1.59442 28.9273 1.51522C21.6469 2.20875 15.9431 8.3553 15.8866 15.8554H14.7128C13.2625 15.8554 12.0867 17.0395 12.0867 18.5002C12.0867 19.9608 13.2625 21.1449 14.7128 21.1449H46.5054C47.9558 21.1449 49.1315 19.9608 49.1315 18.5002C49.1315 17.0395 47.9558 15.8554 46.5054 15.8554H44.717C44.66 8.29683 38.8674 2.113 31.5058 1.5C31.5223 1.58394 31.531 1.67074 31.531 1.75959V6.26127C31.531 6.99159 30.9432 7.58363 30.218 7.58363C29.4928 7.58363 28.9049 6.99159 28.9049 6.26126V1.75959ZM33.9616 2.91313C33.545 2.91313 33.2073 3.25324 33.2073 3.67279V6.14871C33.2073 6.56826 33.545 6.90837 33.9616 6.90837C34.3782 6.90837 34.7159 6.56826 34.7159 6.14871V3.67279C34.7159 3.25324 34.3782 2.91313 33.9616 2.91313ZM25.7201 3.72906C25.7201 3.30951 26.0578 2.9694 26.4744 2.9694C26.891 2.9694 27.2287 3.30951 27.2287 3.72906V6.20498C27.2287 6.62453 26.891 6.96464 26.4744 6.96464C26.0578 6.96464 25.7201 6.62453 25.7201 6.20498V3.72906Z" stroke="#ADF802" mask="url(#path-1-outside-1_1181_4796)"/>
<path d="M30.5812 34.7929C23.2368 34.7929 17.283 28.7971 17.283 21.401H43.8793C43.8793 28.7971 37.9255 34.7929 30.5812 34.7929Z" stroke="#ADF802" mask="url(#path-1-outside-1_1181_4796)"/>
</svg>
