<svg width="101" height="8" viewBox="0 0 101 8" fill="none" xmlns="http://www.w3.org/2000/svg">
<path d="M8.58998 0.0109139L8.57884 8H7.15274V4.80218C4.89105 4.80218 3.52066 4.80218 2.42881 4.80218C0.735329 4.80218 0.0111413 4.1146 0.0111413 2.72851C0.0111413 1.80082 0.0111413 0.0109139 0.0111413 0.0109139H1.43723C1.43723 0.0109139 1.43723 1.99727 1.43723 2.39018C1.43723 2.794 1.72691 3.1869 2.32854 3.1869C3.62094 3.1869 6.86307 3.1869 7.15274 3.1869V0.0109139H8.58998ZM1.43723 6.38472V8H0V6.38472H1.43723Z" fill="black"/>
<path d="M14.9471 6.38472C14.9471 6.38472 14.2563 6.38472 15.7604 6.38472C16.362 6.38472 16.6406 5.99181 16.6406 5.59891C16.6406 5.206 16.6406 0.0109139 16.6406 0.0109139H18.0666C18.0666 0.0109139 18.0666 4.76944 18.0666 5.69713C18.0666 6.85402 17.3647 7.96726 15.727 8H12.5628C12.5628 8 12.2174 6.38472 14.2786 6.38472C14.546 6.38472 14.7688 6.38472 14.9471 6.38472ZM9.48781 0.0109139H10.9139C10.9139 0.0109139 10.9139 4.27831 10.9139 5.74079C10.9139 6.33015 10.9139 8 10.9139 8C10.9139 8 9.48781 7.68349 9.48781 5.64256C9.48781 4.39836 9.48781 3.08868 9.48781 0.0109139Z" fill="black"/>
<path d="M18.9754 1.62619C18.9754 1.62619 19.3096 0.0109139 21.393 0.0109139H26.1392C26.1392 0.0109139 26.4846 1.62619 24.4235 1.62619H21.2928C20.6911 1.62619 18.9754 1.62619 18.9754 1.62619ZM24.7132 4.80218C24.7132 4.80218 21.8053 4.80218 20.7023 4.80218C18.6411 4.80218 18.9976 3.20873 18.9976 3.20873H25.1588C28.3564 3.20873 28.3564 8 25.1922 8C21.6047 8 18.9754 8 18.9754 8V6.38472C18.9754 6.38472 24.1338 6.38472 25.2591 6.38472C26.4178 6.38472 26.4623 4.80218 25.2591 4.80218C24.9137 4.80218 24.6017 4.80218 24.7132 4.80218Z" fill="black"/>
<path d="M35.7252 0.0109139V1.62619C35.7252 1.62619 29.9652 1.62619 28.8733 1.62619C26.8122 1.62619 27.1576 0.0109139 27.1576 0.0109139H35.7252ZM30.7116 3.20873H32.1489V8H30.7116V3.20873Z" fill="black"/>
<path d="M36.6231 0.0109139H38.0492C38.0492 0.0109139 38.0492 4.25648 38.0492 5.72988C38.0492 6.31924 38.0492 8 38.0492 8C38.0492 8 36.6231 7.67258 36.6231 5.63165C36.6231 4.38745 36.6231 3.08868 36.6231 0.0109139ZM39.6981 8L39.7092 6.38472H45.2019V8H39.6981Z" fill="black"/>
<path d="M44.971 1.62619C44.971 1.62619 45.3052 0.0109139 47.3887 0.0109139H52.1349C52.1349 0.0109139 52.4803 1.62619 50.4191 1.62619H47.2884C46.6868 1.62619 44.971 1.62619 44.971 1.62619ZM50.7088 4.80218C50.7088 4.80218 47.8009 4.80218 46.6979 4.80218C44.6367 4.80218 44.9933 3.20873 44.9933 3.20873H51.1544C54.352 3.20873 54.352 8 51.1879 8C47.6003 8 44.971 8 44.971 8V6.38472C44.971 6.38472 50.1294 6.38472 51.2547 6.38472C52.4134 6.38472 52.458 4.80218 51.2547 4.80218C50.9093 4.80218 50.5974 4.80218 50.7088 4.80218Z" fill="black"/>
<path d="M54.4474 3.20873H55.8846C55.8846 3.20873 55.8846 5.19509 55.8846 5.58799C55.8846 5.99181 56.1632 6.38472 56.7648 6.38472H60.72C61.3216 6.38472 61.6113 5.99181 61.6113 5.58799C61.6113 5.46794 61.6113 5.21692 61.6113 4.79127C61.6113 4.79127 61.6113 4.5075 61.6113 3.87449C61.6113 3.4925 61.6113 3.20873 61.6113 3.20873V3.09959C61.6113 2.794 61.6113 2.53206 61.6113 2.41201C61.6113 2.0191 61.3216 1.62619 60.72 1.62619H56.1855C54.1243 1.62619 54.4697 0.0109139 54.4697 0.0109139H60.6308C62.3132 0.0109139 63.0374 1.14598 63.0374 2.31378V5.68622C63.0374 6.86494 62.3132 8 60.6197 8H56.8651C55.1827 8 54.4474 6.86494 54.4474 5.68622C54.4474 4.75853 54.4474 3.20873 54.4474 3.20873Z" fill="black"/>
<path d="M69.3945 6.38472C69.3945 6.38472 68.7037 6.38472 70.2078 6.38472C70.8094 6.38472 71.088 5.99181 71.088 5.59891C71.088 5.206 71.088 0.0109139 71.088 0.0109139H72.5141C72.5141 0.0109139 72.5141 4.76944 72.5141 5.69713C72.5141 6.85402 71.8121 7.96726 70.1744 8H67.0102C67.0102 8 66.6648 6.38472 68.726 6.38472C68.9934 6.38472 69.2162 6.38472 69.3945 6.38472ZM63.9352 0.0109139H65.3613C65.3613 0.0109139 65.3613 4.27831 65.3613 5.74079C65.3613 6.33015 65.3613 8 65.3613 8C65.3613 8 63.9352 7.68349 63.9352 5.64256C63.9352 4.39836 63.9352 3.08868 63.9352 0.0109139Z" fill="black"/>
<path d="M82.0127 8H79.6842C79.6842 8 76.7429 5.11869 76.4198 4.80218H74.86V8H73.4339V3.20873H74.1469C74.1469 3.20873 78.5701 3.20873 79.6953 3.20873C80.854 3.20873 80.8986 1.62619 79.6953 1.62619C78.2024 1.62619 77.3111 1.62619 77.3111 1.62619C76.5089 1.62619 75.6399 1.62619 75.1385 1.62619C73.0885 1.62619 73.4339 0.0109139 73.4339 0.0109139H79.5951C82.7926 0.0109139 82.7926 4.80218 79.6285 4.80218C79.0491 4.80218 78.5144 4.80218 78.7483 4.80218L82.0127 8Z" fill="black"/>
<path d="M89.7734 1.62619L82.8992 1.61528C82.8992 1.61528 83.2334 0.0109139 85.3168 0.0109139H91.4892C91.4892 0.0109139 91.8345 1.62619 89.7734 1.62619ZM91.4892 6.38472V8H85.328C83.6345 8 82.9103 6.86494 82.9103 5.68622C82.9103 4.76944 82.9103 3.21965 82.9103 3.21965H84.3364C84.3364 3.21965 84.3364 5.19509 84.3364 5.59891C84.3364 5.99181 84.6149 6.38472 85.2166 6.38472H91.4892Z" fill="black"/>
<path d="M99.2718 1.61528C98.9042 1.61528 92.3976 1.60437 92.3976 1.60437C92.3976 1.60437 92.7318 0 94.8153 0H100.976C100.976 0 101.333 1.61528 99.2718 1.61528ZM100.988 7.98909H94.8153C93.1329 7.98909 92.3976 6.85402 92.3976 5.67531C92.3976 4.74761 92.3976 3.20873 92.3976 3.20873H99.5615C99.5615 3.20873 99.9069 4.82401 97.8457 4.82401C96.8653 4.82401 94.1357 4.8131 93.8348 4.82401C93.8348 5.16235 93.8348 5.45703 93.8348 5.58799C93.8348 5.9809 94.1134 6.37381 94.715 6.37381H100.988V7.98909Z" fill="black"/>
</svg>
